<?xml version="1.0" encoding="utf-8"?>
<!-- Generator: Adobe Illustrator 23.0.1, SVG Export Plug-In . SVG Version: 6.00 Build 0)  -->
<svg version="1.1" id="Layer_1" xmlns="http://www.w3.org/2000/svg" xmlns:xlink="http://www.w3.org/1999/xlink" x="0px" y="0px"
	 viewBox="0 0 419.5 184.3" style="enable-background:new 0 0 419.5 184.3;" xml:space="preserve">
<style type="text/css">
	.st0{fill-rule:evenodd;clip-rule:evenodd;fill:#141414;}
</style>
<g id="Layer_x0020_1">
	<path class="st0" d="M40.5,143c2.4-9.1,26.4-30.2,33.9-35.8c6.1,1.2,28.3,13.2,7.4,25.6C71.8,138.7,55.1,145,40.5,143z M137.5,89.4
		c2-3.2-0.1-0.9,3.1-3.7c1.8-1.5,0.4,0.2,2.3-1.6c-0.2,2.7,0.9,1.1-1.2,3C141.3,87.4,137.9,89.1,137.5,89.4z M167.5,104.2
		c-3.5-7.2,5.4-25.4,14-27.7c8.2-2.1,33.2-2.9,42.3-2.2l-27.1,16.1C190.6,94.2,174.8,104.5,167.5,104.2z M232.5,75.2
		c1.5-2.7-0.2-1.7,3.1-3c0.8-0.3,4.9-0.7,5.8-0.9C238.7,74.3,236,76.8,232.5,75.2z M151.7,83.6l-2.6-8.1l-7,2.4
		c-16.8,5-35.9,22.2-50.3,25.5c0.8-5.8,6.8-11.4,10.1-14.3c11.9-10.3,12.5-6.9,11.7-13.8c-4.9,0.1-7.3,2.7-10.9,5.2
		c-3.4,2.3-5.5,4-9.5,6.7c-3.5,2.4-5.5,4-9.5,6.8c-1.7,1.2-9.1,7-10.2,7.4c-4.8,1.7-19.4-3.7-26.3-4.4c-10.4-1-21.4-0.2-29.7-4
		c0.2-9.9,11.4-12.2,25.6-19.2c10.5-5.2,20.6-9.6,31.8-14.4C89.3,53.1,118.4,43,135.4,40c10.3-1.8,7.1-1.4,8.9-4.1
		c-0.4-0.3-0.9-1-1.2-0.6l-24.6,4c-30.9,9.5-62.8,22.4-91.4,37.4c-6,3.2-18,8.1-13.5,18.3c4,9,40.8,4,54.7,10.6
		c-7.1,6.8-29.9,25.1-31.6,34.7c3.9,8.8,11.4,8.2,22.1,6.3c11-2.1,39.1-9.9,34.9-25.7c-2.3-8.7-8.6-10.9-15-15.8
		c1.5-3.8,6-6.3,8.9-7.8c-4.8,24.6,34.1-4.5,41-7.3c4.5,7.1,6.4,8.4,14.3,2.2c5.8-4.5,1.5-1.9,7.3-2.7c5-0.6,11.4-5.7,17.6-7.8
		c-3,11.1-11.7,17.5,0.1,26.4c7.3,3,43.8-21,51.5-25.8l5.4,4.8c6-1.6,8.5-4,12.9-7c9.5-6.6,4,0.6,12.3-2.4
		c8.7-3.2,18.9-9.1,27.6-13.1c0.3,0.1,0.6,0.2,0.7,0.6c0.1,0.4,0.6,0.5,0.8,0.6l4.1,2.7c4,0.8,9.4-2.6,13.3-4
		c1.7-0.6,23-8.9,23.9-5.3c0.1,0.6,1.3,1.3,1.5,1.5c3,3-0.5,0.3,3.1,2.9c6.2-1.7,12.5-4.3,18.4-6.4c8.5-3,10.9-0.9,19.5-5
		c10.7-5.1,5,2.7,17-1.8c6.5-2.4,11.6-4.9,17.9-6.8l-14.7,18.1c-7.7,10.5-39.8,54.9-33.7,64.8c3-4.3,2.2-9.6,11.4-24.8
		c12.3-20.3,23.8-37.4,40.8-54.2c2.5-2.5,12-10.4,3.4-11.4c-4.2-0.4-22.9,7.8-27,9.4c-0.1-0.3-0.3-1-0.4-0.9
		c-0.7,2.2-0.6-1.4-0.8-1.8l-1.6-3C367,43,363.8,48.2,352,50.1c-11.4,1.7-17.4,6-26.8,8c-0.2-0.2-0.6-1-0.7-0.8
		c-0.1,0.2-0.6-0.6-0.7-0.8c-2.2-1.9,0-0.6-2.4-1.9c-3.1-1.7-3-1.3-6.7-0.8l-22.5,7.5c-19.7,7.4,9.4-16.1-41.5,10.7
		c-7.1-2.5,1.6-1.7-5.5-3.2c-2.3-0.5-6.9,0-9.4,0.2l-54.1,2.4c2.9-7.3,37-46.7,51.8-46.6c-1,8.1-5.8,8.4-3.3,18.2
		c2.8-0.7,3.1,0,6-5.4c6.4-12,3.7-20.1-8.1-18.7c-10.8,1.2-40.3,36.6-47.3,46.1c-4.5,6-3.8,7.8-12.3,10.7
		C161.5,78,157.5,81.1,151.7,83.6z"/>
</g>
</svg>
